# xmcd
#
# Track frame offsets:
#	150
#	14240
#	32930
#	60972
#	67762
#	85377
#	102967
#	112585
#	124257
#	142785
#	156997
#	175110
#	188135
#	205532
#	229470
#	240415
#	257867
#	270962
#	287502
#	298805
#
# Disc length: 4311 seconds
#
# Revision: 6
# Processed by: cddbd v1.5.1PL0 Copyright (c) Steve Scherf et al.
# Submitted via: EasyCDDAExtractor 7.0.4.1
#
DISCID=1410d514
DTITLE=Johnny Madsen - Madsens Største [CD 1)
DYEAR=1996
DGENRE=Blues
TTITLE0=Johnny
TTITLE1=Udenfor Sæsonen
TTITLE2=En Sølvmåge Lander Ganske Langsomt På Balticas Flerfarvede Lysstofrør 
TTITLE2=Og Kikker Opmærksomt Ud På Havet
TTITLE3=Flyver Blues
TTITLE4=Heroes
TTITLE5=Stjernenat
TTITLE6=Ta' Mod Vest
TTITLE7=Æ Møt Her Te' En Bal
TTITLE8=Færgemanden
TTITLE9=Billy Og Villy
TTITLE10=Chinatown, Yellow Moon Og Den Sorte Fugl
TTITLE11=Akvariefisk
TTITLE12=Terylene Bukser
TTITLE13=One Man Band
TTITLE14=Drengeleg
TTITLE15=Sergei Og Johnny
TTITLE16=Jens Oluf
TTITLE17=Sanduglen Og Natørnen
TTITLE18=Digt Fra Vest
TTITLE19=Æ Kør' O Æ Motorvej
EXTD=
EXTT0=
EXTT1=
EXTT2=
EXTT3=
EXTT4=
EXTT5=
EXTT6=
EXTT7=
EXTT8=
EXTT9=
EXTT10=
EXTT11=
EXTT12=
EXTT13=
EXTT14=
EXTT15=
EXTT16=
EXTT17=
EXTT18=
EXTT19=
PLAYORDER=
